<svg xmlns="http://www.w3.org/2000/svg" xmlns:xlink="http://www.w3.org/1999/xlink" width="16px"
    height="11px" viewBox="0 0 16 11" version="1.1">
    <g id="surface1">
        <path
            style=" stroke:none;fill-rule:evenodd;fill:rgb(99.607843%,99.607843%,99.607843%);fill-opacity:1;"
            d="M 0.0234375 0.0234375 C 5.34375 0.0078125 10.667969 0.00390625 15.992188 0.0078125 C 15.992188 3.667969 15.992188 7.332031 15.992188 10.992188 C 15.980469 10.992188 15.96875 10.992188 15.957031 10.992188 C 15.957031 8.457031 15.957031 5.917969 15.957031 3.382812 C 15.921875 3.359375 15.882812 3.359375 15.84375 3.382812 C 15.554688 3.546875 15.265625 3.707031 14.972656 3.863281 C 14.84375 3.933594 14.714844 3.992188 14.578125 4.042969 C 14.578125 4.0625 14.578125 4.078125 14.578125 4.09375 C 14.175781 4.285156 13.78125 4.5 13.394531 4.730469 C 12.949219 4.957031 12.511719 5.195312 12.082031 5.441406 C 11.9375 5.519531 11.789062 5.589844 11.636719 5.648438 C 11.636719 5.664062 11.636719 5.683594 11.636719 5.699219 C 11.328125 5.851562 11.015625 6.011719 10.703125 6.179688 C 10.621094 6.234375 10.539062 6.285156 10.457031 6.335938 C 9.832031 6.660156 9.214844 6.996094 8.597656 7.335938 C 8.410156 7.445312 8.21875 7.550781 8.023438 7.648438 C 7.992188 7.671875 7.957031 7.671875 7.925781 7.648438 C 5.304688 6.21875 2.683594 4.789062 0.0664062 3.367188 C 0.046875 3.367188 0.0351562 3.371094 0.0234375 3.382812 C 0.0234375 2.664062 0.0234375 1.949219 0.0234375 1.230469 C 0.0234375 1.242188 0.0234375 1.253906 0.0234375 1.265625 C 2.644531 2.703125 5.269531 4.136719 7.894531 5.566406 C 7.949219 5.589844 8.003906 5.589844 8.058594 5.566406 C 8.492188 5.320312 8.933594 5.074219 9.371094 4.828125 C 9.65625 4.675781 9.949219 4.527344 10.242188 4.390625 C 10.242188 4.375 10.242188 4.359375 10.242188 4.34375 C 10.324219 4.3125 10.40625 4.273438 10.488281 4.234375 C 10.738281 4.097656 10.988281 3.960938 11.246094 3.828125 C 11.453125 3.707031 11.660156 3.585938 11.867188 3.464844 C 12.027344 3.40625 12.175781 3.328125 12.3125 3.226562 C 12.597656 3.070312 12.886719 2.925781 13.183594 2.789062 C 13.183594 2.769531 13.183594 2.753906 13.183594 2.738281 C 13.515625 2.570312 13.851562 2.402344 14.183594 2.226562 C 14.449219 2.0625 14.722656 1.914062 15.007812 1.777344 C 15.324219 1.597656 15.640625 1.414062 15.957031 1.230469 C 15.957031 0.828125 15.957031 0.425781 15.957031 0.0234375 C 10.648438 0.0234375 5.335938 0.0234375 0.0234375 0.0234375 Z M 0.0234375 0.0234375 " />
        <path style=" stroke:none;fill-rule:evenodd;fill:rgb(46.666667%,0%,60%);fill-opacity:1;"
            d="M 0.0234375 0.0234375 C 5.335938 0.0234375 10.648438 0.0234375 15.957031 0.0234375 C 15.957031 0.425781 15.957031 0.828125 15.957031 1.230469 C 15.617188 1.398438 15.292969 1.578125 14.988281 1.769531 C 14.609375 1.945312 14.253906 2.140625 13.921875 2.347656 C 13.671875 2.476562 13.417969 2.601562 13.167969 2.722656 C 13.167969 2.738281 13.167969 2.753906 13.167969 2.769531 C 13.097656 2.789062 13.03125 2.816406 12.96875 2.851562 C 12.59375 3.058594 12.226562 3.257812 11.867188 3.449219 C 11.570312 3.613281 11.269531 3.777344 10.964844 3.9375 C 10.96875 3.941406 10.976562 3.949219 10.980469 3.953125 C 10.730469 4.082031 10.476562 4.207031 10.226562 4.324219 C 10.226562 4.34375 10.226562 4.359375 10.226562 4.375 C 10.179688 4.382812 10.136719 4.398438 10.09375 4.417969 C 9.417969 4.796875 8.726562 5.171875 8.023438 5.542969 C 8.03125 5.546875 8.035156 5.550781 8.042969 5.558594 C 7.996094 5.570312 7.953125 5.570312 7.910156 5.550781 C 7.546875 5.335938 7.171875 5.132812 6.777344 4.945312 C 6.78125 4.941406 6.789062 4.933594 6.792969 4.929688 C 5.140625 4.03125 3.515625 3.144531 1.914062 2.265625 C 1.488281 2.046875 1.066406 1.816406 0.648438 1.570312 C 0.441406 1.464844 0.234375 1.363281 0.0234375 1.265625 C 0.0234375 1.253906 0.0234375 1.242188 0.0234375 1.230469 C 0.0234375 0.828125 0.0234375 0.425781 0.0234375 0.0234375 Z M 0.0234375 0.0234375 " />
        <path
            style=" stroke:none;fill-rule:evenodd;fill:rgb(91.764706%,85.098039%,93.72549%);fill-opacity:1;"
            d="M 15.957031 1.230469 C 15.640625 1.414062 15.324219 1.597656 15.007812 1.777344 C 14.722656 1.914062 14.449219 2.0625 14.183594 2.226562 C 13.851562 2.402344 13.515625 2.570312 13.183594 2.738281 C 13.183594 2.753906 13.183594 2.769531 13.183594 2.789062 C 12.886719 2.925781 12.597656 3.070312 12.3125 3.226562 C 12.175781 3.328125 12.027344 3.40625 11.867188 3.464844 C 11.867188 3.460938 11.867188 3.453125 11.867188 3.449219 C 12.226562 3.257812 12.59375 3.058594 12.96875 2.851562 C 13.03125 2.816406 13.097656 2.789062 13.167969 2.769531 C 13.167969 2.753906 13.167969 2.738281 13.167969 2.722656 C 13.417969 2.601562 13.671875 2.476562 13.921875 2.347656 C 14.253906 2.140625 14.609375 1.945312 14.988281 1.769531 C 15.292969 1.578125 15.617188 1.398438 15.957031 1.230469 Z M 15.957031 1.230469 " />
        <path
            style=" stroke:none;fill-rule:evenodd;fill:rgb(95.294118%,92.156863%,96.470588%);fill-opacity:1;"
            d="M 0.0234375 1.265625 C 0.234375 1.363281 0.441406 1.464844 0.648438 1.570312 C 1.066406 1.816406 1.488281 2.046875 1.914062 2.265625 C 3.515625 3.144531 5.140625 4.03125 6.792969 4.929688 C 6.789062 4.933594 6.78125 4.941406 6.777344 4.945312 C 7.171875 5.132812 7.546875 5.335938 7.910156 5.550781 C 7.953125 5.570312 7.996094 5.570312 8.042969 5.558594 C 8.035156 5.550781 8.03125 5.546875 8.023438 5.542969 C 8.726562 5.171875 9.417969 4.796875 10.09375 4.417969 C 10.136719 4.398438 10.179688 4.382812 10.226562 4.375 C 10.226562 4.359375 10.226562 4.34375 10.226562 4.324219 C 10.476562 4.207031 10.730469 4.082031 10.980469 3.953125 C 10.976562 3.949219 10.96875 3.941406 10.964844 3.9375 C 11.269531 3.777344 11.570312 3.613281 11.867188 3.449219 C 11.867188 3.453125 11.867188 3.460938 11.867188 3.464844 C 11.660156 3.585938 11.453125 3.707031 11.246094 3.828125 C 10.988281 3.960938 10.738281 4.097656 10.488281 4.234375 C 10.40625 4.273438 10.324219 4.3125 10.242188 4.34375 C 10.242188 4.359375 10.242188 4.375 10.242188 4.390625 C 9.949219 4.527344 9.65625 4.675781 9.371094 4.828125 C 8.933594 5.074219 8.492188 5.320312 8.058594 5.566406 C 8.003906 5.589844 7.949219 5.589844 7.894531 5.566406 C 5.269531 4.136719 2.644531 2.703125 0.0234375 1.265625 Z M 0.0234375 1.265625 " />
        <path style=" stroke:none;fill-rule:evenodd;fill:rgb(46.666667%,0%,60%);fill-opacity:1;"
            d="M 0.0234375 3.382812 C 0.0898438 3.402344 0.15625 3.425781 0.222656 3.457031 C 0.214844 3.460938 0.210938 3.46875 0.207031 3.472656 C 2.773438 4.867188 5.339844 6.265625 7.910156 7.667969 C 7.953125 7.6875 7.996094 7.6875 8.042969 7.667969 C 8.234375 7.570312 8.417969 7.464844 8.597656 7.351562 C 11.03125 6.039062 13.453125 4.722656 15.859375 3.398438 C 15.890625 3.382812 15.925781 3.378906 15.957031 3.382812 C 15.957031 5.917969 15.957031 8.457031 15.957031 10.992188 C 10.648438 10.992188 5.335938 10.992188 0.0234375 10.992188 C 0.0234375 8.457031 0.0234375 5.917969 0.0234375 3.382812 Z M 0.0234375 3.382812 " />
        <path
            style=" stroke:none;fill-rule:evenodd;fill:rgb(91.372549%,83.529412%,93.333333%);fill-opacity:1;"
            d="M 15.957031 3.382812 C 15.925781 3.378906 15.890625 3.382812 15.859375 3.398438 C 13.453125 4.722656 11.03125 6.039062 8.597656 7.351562 C 8.597656 7.347656 8.597656 7.339844 8.597656 7.335938 C 9.214844 6.996094 9.832031 6.660156 10.457031 6.335938 C 10.539062 6.285156 10.621094 6.234375 10.703125 6.179688 C 11.015625 6.011719 11.328125 5.851562 11.636719 5.699219 C 11.636719 5.683594 11.636719 5.664062 11.636719 5.648438 C 11.789062 5.589844 11.9375 5.519531 12.082031 5.441406 C 12.511719 5.195312 12.949219 4.957031 13.394531 4.730469 C 13.78125 4.5 14.175781 4.285156 14.578125 4.09375 C 14.578125 4.078125 14.578125 4.0625 14.578125 4.042969 C 14.714844 3.992188 14.84375 3.933594 14.972656 3.863281 C 15.265625 3.707031 15.554688 3.546875 15.84375 3.382812 C 15.882812 3.359375 15.921875 3.359375 15.957031 3.382812 Z M 15.957031 3.382812 " />
        <path
            style=" stroke:none;fill-rule:evenodd;fill:rgb(85.490196%,72.941176%,89.019608%);fill-opacity:1;"
            d="M 0.0234375 3.382812 C 0.0351562 3.371094 0.046875 3.367188 0.0664062 3.367188 C 2.683594 4.789062 5.304688 6.21875 7.925781 7.648438 C 7.957031 7.671875 7.992188 7.671875 8.023438 7.648438 C 8.21875 7.550781 8.410156 7.445312 8.597656 7.335938 C 8.597656 7.339844 8.597656 7.347656 8.597656 7.351562 C 8.417969 7.464844 8.234375 7.570312 8.042969 7.667969 C 7.996094 7.6875 7.953125 7.6875 7.910156 7.667969 C 5.339844 6.265625 2.773438 4.867188 0.207031 3.472656 C 0.210938 3.46875 0.214844 3.460938 0.222656 3.457031 C 0.15625 3.425781 0.0898438 3.402344 0.0234375 3.382812 Z M 0.0234375 3.382812 " />
    </g>
</svg>