<svg xmlns="http://www.w3.org/2000/svg" viewBox="0 0 3996.01 900"><g id="Layer_2" data-name="Layer 2"><g id="Logo"><path d="M872.26,605a5.2,5.2,0,0,1-.22,1.48,4.84,4.84,0,0,1-.18.49,447.75,447.75,0,0,1-46.13,90.75l-.1.14a5,5,0,0,1-4.1,2.14H450c-138.07,0-250-111.93-250-250S311.93,200,450,200H821.53a5,5,0,0,1,4.1,2.14l.1.14A447.75,447.75,0,0,1,871.86,293a4.84,4.84,0,0,1,.18.49,5.2,5.2,0,0,1,.22,1.48,5,5,0,0,1-5,5H450a150,150,0,1,0,0,300H867.26A5,5,0,0,1,872.26,605Z"/><path d="M900,450a452.13,452.13,0,0,1-2.26,45.3c0,.14,0,.29,0,.43a5,5,0,0,1-4.94,4.27H450a50,50,0,0,1,0-100H892.76a5,5,0,0,1,4.94,4.27c0,.14,0,.29,0,.43A452.13,452.13,0,0,1,900,450Z"/><path d="M723.37,805a5,5,0,0,1-1.8,3.84,4.4,4.4,0,0,1-.41.31,447.74,447.74,0,0,1-246,90.16C209.56,914-11.8,694.61.49,428.86,11.53,190.14,208.56,0,450,0A447.94,447.94,0,0,1,721.14,90.84a3.61,3.61,0,0,1,.44.33,5,5,0,0,1-3.21,8.83H450a350,350,0,1,0,0,700H718.37A5,5,0,0,1,723.37,805Z"/><path d="M1453.75,700q-53.2,0-99.59-18.76a248.38,248.38,0,0,1-80.83-52.18A242.4,242.4,0,0,1,1219.44,551Q1200,506.29,1200,454.43q0-52.51,19.44-97.2a240,240,0,0,1,54.23-78.1,253.71,253.71,0,0,1,80.83-52.19q46.05-18.75,99.25-18.75a267.77,267.77,0,0,1,76.4,10.91,278.15,278.15,0,0,1,68.55,30.7,214.89,214.89,0,0,1,54.23,47.74l-66.85,66.17q-25.93-32.06-59.68-48.43a164.39,164.39,0,0,0-72.65-16.37,151.23,151.23,0,0,0-60,11.94,148.1,148.1,0,0,0-80.49,81.85q-11.61,28.32-11.59,61.73,0,32.74,11.59,61.05A145.28,145.28,0,0,0,1346,564.6a151.6,151.6,0,0,0,49.46,32.4q28.29,11.61,61.73,11.59a160.49,160.49,0,0,0,70.26-15.68q32.74-15.69,58-45L1650.2,612a224.07,224.07,0,0,1-53.88,47.06,264.68,264.68,0,0,1-67.88,30.36A267.41,267.41,0,0,1,1453.75,700Z"/><path d="M1865.06,700q-53.2,0-96.17-24.56a186.65,186.65,0,0,1-68.22-66.16q-25.25-41.61-25.24-93.46t24.9-93.79q24.9-41.94,68.21-66.5T1865.06,331q53.22,0,96.53,24.56T2029.8,422q24.89,42,24.9,93.79t-24.9,93.46a184.08,184.08,0,0,1-67.87,66.16Q1919,700,1865.06,700Zm0-81.17q28,0,50.14-13.65A101.35,101.35,0,0,0,1950.67,568q13.3-23.53,13.3-52.19,0-29.31-13.3-52.52a105.11,105.11,0,0,0-35.47-37.17q-22.17-14-50.14-14a92.51,92.51,0,0,0-49.79,14,101.11,101.11,0,0,0-35.47,37.17q-13,23.2-13,52.52,0,28.65,13,52.19a97.65,97.65,0,0,0,35.47,37.17A94.09,94.09,0,0,0,1865.06,618.83Z"/><path d="M2112,693.18V337.79h93.45v39.56q17.05-23.18,40.93-35.47t53.89-12.28q25.92.69,38.88,8.19v81.86a97.12,97.12,0,0,0-22.51-7.17,132,132,0,0,0-25.24-2.38,94.24,94.24,0,0,0-49.79,13.64q-22.51,13.65-36.16,38.88V693.18Z"/><path d="M2390.29,693.18V215.69L2483.75,200V366.44Q2526,333,2583.34,333q50.46,0,91.4,24.55a184.45,184.45,0,0,1,65.15,65.83q24.2,41.28,24.21,92.42t-24.56,92.43a182.67,182.67,0,0,1-66.16,65.49Q2631.76,698,2580.61,698a181,181,0,0,1-51.84-7.5,166.81,166.81,0,0,1-46.39-21.83v24.56Zm178-74.35q29.33,0,52.86-13.65a101.35,101.35,0,0,0,37.18-36.83Q2672,545.16,2672,515.82T2658.37,463a98,98,0,0,0-37.18-36.83q-23.52-13.31-52.86-13.31-25.93,0-47.41,8.53a100.15,100.15,0,0,0-37.17,25.58V585.4q15,15.71,37.17,24.56A126.45,126.45,0,0,0,2568.33,618.83Z"/><path d="M2937.35,699.32q-38.2,0-67.53-14t-45.7-38.54q-16.38-24.56-16.37-56.61,0-51.16,38.54-79.47t106.07-28.31q46.38,0,87.31,14.33V470.8q0-30.69-19.1-46.38t-55.93-15.69q-22.51,0-48.43,7.16t-60,22.17l-34.11-68.89q42.29-19.1,80.83-28.65a321.17,321.17,0,0,1,77.43-9.55q71.63,0,111.52,34.45t39.91,97.2V693.18h-92.09V667.94a148.49,148.49,0,0,1-47.07,23.87Q2967.36,699.31,2937.35,699.32Zm-40.93-111.19q0,20.46,17.74,32.4t47.07,11.94a152.11,152.11,0,0,0,43-5.8,112.19,112.19,0,0,0,35.47-17.39V557.43a187.88,187.88,0,0,0-35.47-10.23,217.68,217.68,0,0,0-39.56-3.41q-32.07,0-50.14,11.94T2896.42,588.13Z"/><path d="M3367.09,698q-50.49,0-91.41-24.55a184.35,184.35,0,0,1-65.14-65.83q-24.23-41.27-24.22-92.43t24.22-92.42a180.06,180.06,0,0,1,65.82-65.49Q3318,333,3369.82,333a181.62,181.62,0,0,1,51.16,7.16,173.39,173.39,0,0,1,45.7,20.8V215.69L3560.13,200V693.18H3468V663.85Q3424.39,698,3367.09,698Zm15-79.81q25.92,0,47.41-8.52A100,100,0,0,0,3466.68,584V445.57A112.21,112.21,0,0,0,3429.16,421a124,124,0,0,0-47.07-8.87q-29.33,0-52.86,13.3a98.07,98.07,0,0,0-37.18,36.84q-13.65,23.54-13.64,52.86t13.64,52.53a101.35,101.35,0,0,0,37.18,36.83Q3352.77,618.15,3382.09,618.14Z"/><path d="M3806.38,700q-53.22,0-96.18-24.56A186.65,186.65,0,0,1,3642,609.28q-25.24-41.61-25.24-93.46t24.9-93.79q24.9-41.94,68.21-66.5T3806.38,331q53.2,0,96.52,24.56t68.21,66.5q24.88,42,24.9,93.79t-24.9,93.46a184.08,184.08,0,0,1-67.87,66.16Q3860.27,700,3806.38,700Zm0-81.17q28,0,50.13-13.65A101.27,101.27,0,0,0,3892,568q13.3-23.53,13.3-52.19,0-29.31-13.3-52.52a105,105,0,0,0-35.47-37.17q-22.17-14-50.13-14a92.52,92.52,0,0,0-49.8,14,101.11,101.11,0,0,0-35.47,37.17q-13,23.2-13,52.52,0,28.65,13,52.19a97.65,97.65,0,0,0,35.47,37.17A94.1,94.1,0,0,0,3806.38,618.83Z"/></g></g></svg>