<svg fill="none" xmlns="http://www.w3.org/2000/svg">
    <path
        d="M6.5 10.0469C6.68417 10.0469 6.83854 9.98458 6.96312 9.86C7.08771 9.73542 7.15 9.58104 7.15 9.39687C7.15 9.21271 7.08771 9.05833 6.96312 8.93375C6.83854 8.80917 6.68417 8.74687 6.5 8.74687C6.31583 8.74687 6.16146 8.80917 6.03687 8.93375C5.91229 9.05833 5.85 9.21271 5.85 9.39687C5.85 9.58104 5.91229 9.73542 6.03687 9.86C6.16146 9.98458 6.31583 10.0469 6.5 10.0469ZM5.85 7.44687H7.15V3.54688H5.85V7.44687ZM6.5 13.2969C5.60083 13.2969 4.75583 13.1262 3.965 12.785C3.17417 12.4437 2.48625 11.9806 1.90125 11.3956C1.31625 10.8106 0.853125 10.1227 0.511875 9.33187C0.170625 8.54104 0 7.69604 0 6.79688C0 5.89771 0.170625 5.05271 0.511875 4.26187C0.853125 3.47104 1.31625 2.78312 1.90125 2.19812C2.48625 1.61312 3.17417 1.15 3.965 0.80875C4.75583 0.4675 5.60083 0.296875 6.5 0.296875C7.39917 0.296875 8.24417 0.4675 9.035 0.80875C9.82583 1.15 10.5138 1.61312 11.0987 2.19812C11.6837 2.78312 12.1469 3.47104 12.4881 4.26187C12.8294 5.05271 13 5.89771 13 6.79688C13 7.69604 12.8294 8.54104 12.4881 9.33187C12.1469 10.1227 11.6837 10.8106 11.0987 11.3956C10.5138 11.9806 9.82583 12.4437 9.035 12.785C8.24417 13.1262 7.39917 13.2969 6.5 13.2969ZM6.5 11.9969C7.95167 11.9969 9.18125 11.4931 10.1887 10.4856C11.1962 9.47812 11.7 8.24854 11.7 6.79688C11.7 5.34521 11.1962 4.11562 10.1887 3.10812C9.18125 2.10062 7.95167 1.59687 6.5 1.59687C5.04833 1.59687 3.81875 2.10062 2.81125 3.10812C1.80375 4.11562 1.3 5.34521 1.3 6.79688C1.3 8.24854 1.80375 9.47812 2.81125 10.4856C3.81875 11.4931 5.04833 11.9969 6.5 11.9969Z" />
</svg>