<svg viewBox="0 0 29 18" xmlns="http://www.w3.org/2000/svg">
<g id="Group 2869">
<path id="Vector" d="M6.4125 18C4.63491 18 3.12176 17.4404 1.87306 16.3211C0.624352 15.2019 0 13.8404 0 12.2365C0 10.7629 0.558125 9.45494 1.67437 8.31262C2.79063 7.17033 4.17817 6.55714 5.83701 6.47306C6.15674 4.60054 7.11131 3.05357 8.70073 1.83214C10.2901 0.610714 12.1399 0 14.25 0C16.6268 0 18.646 0.749582 20.3076 2.24875C21.9692 3.74793 22.8 5.56978 22.8 7.71429V9H23.6769C25.0416 9.03956 26.1867 9.49161 27.112 10.3562C28.0373 11.2207 28.5 12.2687 28.5 13.5C28.5 14.761 28.0181 15.8262 27.0544 16.6957C26.0907 17.5652 24.9101 18 23.5125 18H6.4125ZM6.4125 16.7143H23.5125C24.51 16.7143 25.3531 16.4036 26.0419 15.7821C26.7306 15.1607 27.075 14.4 27.075 13.5C27.075 12.6 26.7306 11.8393 26.0419 11.2179C25.3531 10.5964 24.51 10.2857 23.5125 10.2857H21.375V7.71429C21.375 5.93571 20.6803 4.41964 19.2909 3.16607C17.9016 1.9125 16.2213 1.28571 14.25 1.28571C12.2787 1.28571 10.5984 1.9125 9.20906 3.16607C7.81969 4.41964 7.125 5.93571 7.125 7.71429H6.4125C5.035 7.71429 3.85938 8.15357 2.88562 9.03214C1.91188 9.91072 1.425 10.9714 1.425 12.2143C1.425 13.4571 1.91188 14.5179 2.88562 15.3964C3.85938 16.275 5.035 16.7143 6.4125 16.7143Z"/>
<path id="Vector_2" d="M7.43555 13.7029V11.9345C7.43555 11.5766 7.5293 11.2477 7.7168 10.9477C7.9043 10.6477 8.1534 10.4187 8.46412 10.2608C9.1284 9.9345 9.8034 9.68976 10.4891 9.5266C11.1748 9.36345 11.8713 9.28187 12.5784 9.28187C12.7927 9.28187 13.007 9.28976 13.2213 9.30555C13.4355 9.32134 13.6498 9.34502 13.8641 9.3766C13.8213 9.98713 13.9338 10.5634 14.2016 11.1056C14.4695 11.6477 14.8605 12.0924 15.3748 12.4398V13.7029H7.43555ZM17.7213 15.5977L16.757 14.6503V11.7134C16.2855 11.5766 15.8998 11.3161 15.5998 10.9319C15.2998 10.5477 15.1498 10.1029 15.1498 9.59766C15.1498 8.98713 15.3695 8.46608 15.8088 8.0345C16.248 7.60292 16.7784 7.38713 17.3998 7.38713C18.0213 7.38713 18.5516 7.60292 18.9909 8.0345C19.4302 8.46608 19.6498 8.98713 19.6498 9.59766C19.6498 10.0713 19.5132 10.4924 19.24 10.8608C18.9668 11.2292 18.6213 11.4924 18.2034 11.6503L19.007 12.4398L18.0427 13.3871L19.007 14.3345L17.7213 15.5977ZM12.5784 8.65029C11.8713 8.65029 11.2659 8.40292 10.7623 7.90818C10.2588 7.41345 10.007 6.81871 10.007 6.12397C10.007 5.42924 10.2588 4.8345 10.7623 4.33976C11.2659 3.84502 11.8713 3.59766 12.5784 3.59766C13.2855 3.59766 13.8909 3.84502 14.3945 4.33976C14.898 4.8345 15.1498 5.42924 15.1498 6.12397C15.1498 6.81871 14.898 7.41345 14.3945 7.90818C13.8909 8.40292 13.2855 8.65029 12.5784 8.65029ZM17.3998 9.91345C17.582 9.91345 17.7347 9.85292 17.8579 9.73187C17.9811 9.61081 18.0427 9.46081 18.0427 9.28187C18.0427 9.10292 17.9811 8.95292 17.8579 8.83187C17.7347 8.71081 17.582 8.65029 17.3998 8.65029C17.2177 8.65029 17.065 8.71081 16.9418 8.83187C16.8186 8.95292 16.757 9.10292 16.757 9.28187C16.757 9.46081 16.8186 9.61081 16.9418 9.73187C17.065 9.85292 17.2177 9.91345 17.3998 9.91345Z"/>
</g>
</svg>
