<svg viewBox="0 0 50 50" fill="none" xmlns="http://www.w3.org/2000/svg">
    <path d="M16.1932 11.6591C16.1932 13.1277 15.0027 14.3182 13.5341 14.3182C12.0655 14.3182 10.875 13.1277 10.875 11.6591C10.875 10.1905 12.0655 9 13.5341 9C15.0027 9 16.1932 10.1905 16.1932 11.6591Z" data-fill=""/>
    <path d="M40.125 11.6591C40.125 13.1277 38.9345 14.3182 37.4659 14.3182C35.9973 14.3182 34.8068 13.1277 34.8068 11.6591C34.8068 10.1905 35.9973 9 37.4659 9C38.9345 9 40.125 10.1905 40.125 11.6591Z" data-fill=""/>
    <path d="M45 30.2727L42.6006 33.0413C40.3868 35.5957 37.6347 37.6281 34.5421 38.9925L34.0065 39.2288C27.8084 41.9632 20.689 41.6474 14.7573 38.3747C12.483 37.1199 10.4524 35.4672 8.76195 33.495L6 30.2727M16.1932 11.6591C16.1932 13.1277 15.0027 14.3182 13.5341 14.3182C12.0655 14.3182 10.875 13.1277 10.875 11.6591C10.875 10.1905 12.0655 9 13.5341 9C15.0027 9 16.1932 10.1905 16.1932 11.6591ZM40.125 11.6591C40.125 13.1277 38.9345 14.3182 37.4659 14.3182C35.9973 14.3182 34.8068 13.1277 34.8068 11.6591C34.8068 10.1905 35.9973 9 37.4659 9C38.9345 9 40.125 10.1905 40.125 11.6591Z" stroke-width="5.85" stroke-linecap="round" data-stroke=""/>
</svg>
