<svg viewBox="0 0 50 50" fill="none" xmlns="http://www.w3.org/2000/svg">
    <g>
        <path d="M18.9049 33.7359C18.8604 34.906 19.1541 36.0641 19.7509 37.0715C20.3477 38.0789 21.2222 38.8929 22.2698 39.416C23.3174 39.9391 24.4936 40.1491 25.6575 40.0208C26.8213 39.8925 27.9236 39.4314 28.8321 38.6927L27.7327 37.3406C27.0842 37.8679 26.2974 38.1971 25.4665 38.2887C24.6357 38.3802 23.7961 38.2303 23.0483 37.8569C22.3005 37.4835 21.6762 36.9025 21.2502 36.1833C20.8241 35.4642 20.6145 34.6375 20.6463 33.8022L18.9049 33.7359Z" data-fill=""/>
        <path d="M27.2438 23.7188V28.847H23.0771" stroke-width="1.59946" data-stroke=""/>
        <rect x="33.9736" y="16.6641" width="4.48718" height="4.48718" rx="2.24359" data-fill=""/>
        <rect x="11.5391" y="16.6641" width="4.48718" height="4.48718" rx="2.24359" data-fill=""/>
        <circle cx="25" cy="25" r="24" stroke-width="2" data-stroke=""/>
    </g>
</svg>
