<svg viewBox="0 0 52 44" fill="none" xmlns="http://www.w3.org/2000/svg">
    <path d="M15.5 7C15.5 8.65685 14.1569 10 12.5 10C10.8431 10 9.5 8.65685 9.5 7C9.5 5.34315 10.8431 4 12.5 4C14.1569 4 15.5 5.34315 15.5 7Z" data-fill=""/>
    <path d="M42.5 7C42.5 8.65685 41.1569 10 39.5 10C37.8431 10 36.5 8.65685 36.5 7C36.5 5.34315 37.8431 4 39.5 4C41.1569 4 42.5 5.34315 42.5 7Z" data-fill=""/>
    <path d="M48 28L45.293 31.1235C42.7953 34.0054 39.6904 36.2983 36.2013 37.8377L35.5971 38.1042C28.6043 41.1893 20.5722 40.8329 13.8801 37.1407C11.3142 35.7251 9.0232 33.8604 7.11605 31.6354L4 28M15.5 7C15.5 8.65685 14.1569 10 12.5 10C10.8431 10 9.5 8.65685 9.5 7C9.5 5.34315 10.8431 4 12.5 4C14.1569 4 15.5 5.34315 15.5 7ZM42.5 7C42.5 8.65685 41.1569 10 39.5 10C37.8431 10 36.5 8.65685 36.5 7C36.5 5.34315 37.8431 4 39.5 4C41.1569 4 42.5 5.34315 42.5 7Z" stroke-width="6.6" stroke-linecap="round" data-stroke=""/>
</svg>
