<svg viewBox="0 0 50 50" fill="none" xmlns="http://www.w3.org/2000/svg">
    <path d="M4.51194 19.0966C4.24046 18.8879 4.07563 18.627 4.01745 18.314C3.95928 18.0009 4.04654 17.6774 4.27924 17.3435C6.68381 13.7955 9.69922 11.0405 13.3255 9.07871C16.9517 7.11688 20.8204 6.13596 24.9314 6.13596C29.0425 6.13596 32.9208 7.08557 36.5664 8.98479C40.2121 10.884 43.2566 13.6285 45.6999 17.2182C45.9714 17.5939 46.0587 17.9278 45.9617 18.22C45.8648 18.5122 45.6999 18.7627 45.4672 18.9714C45.2345 19.1801 44.9631 19.274 44.6528 19.2531C44.3425 19.2323 44.071 19.0549 43.8383 18.7209C41.7052 15.4651 38.9613 12.9711 35.6066 11.2388C32.2518 9.50656 28.6934 8.64043 24.9314 8.64043C21.1694 8.64043 17.6401 9.50656 14.3435 11.2388C11.0469 12.9711 8.31272 15.4651 6.14084 18.7209C5.90814 19.0966 5.63666 19.3053 5.32639 19.347C5.01613 19.3888 4.74464 19.3053 4.51194 19.0966ZM31.5052 49.9642C27.4717 48.879 24.1751 46.7188 21.6154 43.4839C19.0557 40.249 17.7759 36.294 17.7759 31.619C17.7759 29.5319 18.474 27.7788 19.8702 26.3596C21.2664 24.9404 22.9535 24.2308 24.9314 24.2308C26.9094 24.2308 28.5964 24.9404 29.9927 26.3596C31.3889 27.7788 32.087 29.5319 32.087 31.619C32.087 32.9964 32.5717 34.1547 33.5413 35.0939C34.5109 36.0331 35.655 36.5027 36.9737 36.5027C38.2923 36.5027 39.417 36.0331 40.3478 35.0939C41.2786 34.1547 41.744 32.9964 41.744 31.619C41.744 26.777 40.0957 22.7072 36.7991 19.4097C33.5025 16.1121 29.566 14.4633 24.9896 14.4633C20.4131 14.4633 16.4766 16.1121 13.18 19.4097C9.88345 22.7072 8.23515 26.7561 8.23515 31.5564C8.23515 32.5581 8.32241 33.8104 8.49694 35.3131C8.67146 36.8157 9.08839 38.5689 9.7477 40.5724C9.86405 40.9481 9.85436 41.2821 9.71862 41.5742C9.58287 41.8664 9.35987 42.0751 9.0496 42.2004C8.73934 42.3256 8.43876 42.3151 8.14789 42.169C7.85701 42.023 7.6534 41.7829 7.53705 41.449C6.9553 39.8211 6.53838 38.2036 6.28628 36.5966C6.03419 34.9896 5.90814 33.3304 5.90814 31.619C5.90814 26.0674 7.77944 21.4132 11.522 17.6565C15.2646 13.8998 19.7344 12.0215 24.9314 12.0215C30.1672 12.0215 34.6661 13.8998 38.428 17.6565C42.19 21.4132 44.071 26.0674 44.071 31.619C44.071 33.706 43.3826 35.4487 42.0058 36.847C40.629 38.2454 38.9516 38.9445 36.9737 38.9445C34.9957 38.9445 33.2989 38.2454 31.8833 36.847C30.4677 35.4487 29.7599 33.706 29.7599 31.619C29.7599 30.2415 29.2849 29.0832 28.3347 28.144C27.3845 27.2048 26.2501 26.7352 24.9314 26.7352C23.6128 26.7352 22.4784 27.2048 21.5282 28.144C20.578 29.0832 20.1029 30.2415 20.1029 31.619C20.1029 35.6679 21.2179 39.0489 23.4479 41.7621C25.678 44.4753 28.5577 46.3745 32.087 47.4598C32.436 47.585 32.6687 47.7937 32.7851 48.0859C32.9014 48.3781 32.9208 48.6911 32.8432 49.025C32.7657 49.3172 32.6105 49.5677 32.3778 49.7764C32.1451 49.9851 31.8543 50.0477 31.5052 49.9642ZM12.0747 6.01073C11.7644 6.21944 11.4542 6.27162 11.1439 6.16726C10.8336 6.06291 10.6009 5.84377 10.4458 5.50984C10.2907 5.17591 10.2519 4.87329 10.3295 4.60197C10.407 4.33065 10.6009 4.09064 10.9112 3.88193C13.0831 2.6297 15.3519 1.66965 17.7177 1.00179C20.0835 0.33393 22.4881 0 24.9314 0C27.4136 0 29.8375 0.323494 32.2033 0.970483C34.5691 1.61747 36.8573 2.54621 39.068 3.75671C39.417 3.96541 39.6206 4.21586 39.6788 4.50805C39.737 4.80024 39.7079 5.09243 39.5916 5.38462C39.4752 5.6768 39.2813 5.90638 39.0098 6.07335C38.7383 6.24031 38.4087 6.21944 38.0208 6.01073C35.9653 4.88372 33.8419 4.01759 31.6506 3.41234C29.4594 2.8071 27.2196 2.50447 24.9314 2.50447C22.682 2.50447 20.4713 2.78623 18.2994 3.34973C16.1276 3.91324 14.0527 4.80024 12.0747 6.01073ZM18.9394 49.0877C16.6512 46.4997 14.8962 43.8596 13.6745 41.1673C12.4528 38.475 11.842 35.2922 11.842 31.619C11.842 27.8205 13.1219 24.6169 15.6816 22.0081C18.2413 19.3992 21.3246 18.0948 24.9314 18.0948C28.5383 18.0948 31.6409 19.3992 34.2394 22.0081C36.8379 24.6169 38.1372 27.8205 38.1372 31.619C38.1372 31.9946 38.0305 32.2973 37.8172 32.5268C37.6039 32.7564 37.3227 32.8712 36.9737 32.8712C36.6634 32.8712 36.3919 32.7564 36.1592 32.5268C35.9265 32.2973 35.8102 31.9946 35.8102 31.619C35.8102 28.4884 34.7339 25.8691 32.5814 23.7612C30.429 21.6532 27.879 20.5993 24.9314 20.5993C21.9839 20.5993 19.4533 21.6532 17.3396 23.7612C15.2259 25.8691 14.169 28.4884 14.169 31.619C14.169 35 14.712 37.8697 15.7979 40.2281C16.8839 42.5865 18.474 44.9553 20.5683 47.3345C20.801 47.585 20.9173 47.8772 20.9173 48.2111C20.9173 48.545 20.801 48.8372 20.5683 49.0877C20.3356 49.3381 20.0641 49.4633 19.7538 49.4633C19.4436 49.4633 19.1721 49.3381 18.9394 49.0877ZM36.5083 44.8301C33.0565 44.8301 30.0605 43.5778 27.5202 41.0733C24.9799 38.5689 23.7097 35.4174 23.7097 31.619C23.7097 31.285 23.8164 30.9928 24.0297 30.7424C24.243 30.492 24.5242 30.3667 24.8732 30.3667C25.2223 30.3667 25.5035 30.492 25.7168 30.7424C25.9301 30.9928 26.0367 31.285 26.0367 31.619C26.0367 34.7496 27.0839 37.3166 29.1782 39.3202C31.2725 41.3238 33.7159 42.3256 36.5083 42.3256C36.741 42.3256 37.0706 42.3047 37.4972 42.263C37.9239 42.2212 38.3699 42.1586 38.8353 42.0751C39.1843 41.9917 39.4849 42.0438 39.737 42.2317C39.9891 42.4195 40.1539 42.7013 40.2315 43.0769C40.309 43.4109 40.2509 43.703 40.0569 43.9535C39.863 44.2039 39.6109 44.3709 39.3007 44.4544C38.6026 44.6631 37.9917 44.7779 37.4682 44.7987C36.9446 44.8196 36.6246 44.8301 36.5083 44.8301Z" data-fill=""/>
</svg>
