<svg viewBox="0 0 44 54" fill="none" xmlns="http://www.w3.org/2000/svg">
    <path d="M3.75182 6.08076L6.35477 4.95237C16.2786 0.650316 27.7872 1.06958 37.3285 6.08076M20.1032 33.3045L20.0912 33.6529C19.916 38.748 17.0059 43.4109 12.3643 46.0336L12.2459 46.1005C11.4512 46.5496 10.6126 46.9258 9.74164 47.2241C8.47961 47.6563 7.15994 47.9212 5.82047 48.0113L3.75182 48.1505M2 17.9043L2.70319 17.2089C14.0553 5.98345 33.6606 8.11371 42 21.4788M3.44389 33.2549L4.23592 30.0153C4.8447 27.5252 6.10143 25.2168 7.89299 23.2978C9.01825 22.0926 10.3365 21.0602 11.8002 20.2382L12.6435 19.7645C20.3006 15.464 30.2211 18.0848 34.3858 25.5085L34.7027 26.2061C36.0437 29.1582 36.6264 32.3667 36.4034 35.5708C36.238 37.9466 35.6326 40.2768 34.6145 42.4562L33.239 45.4008L29.1514 52M17.1825 52L18.0101 51.4433C20.1669 49.9925 22.0381 48.1982 23.5397 46.1414L24.7944 44.4226C26.693 41.8219 27.8239 38.7929 28.0714 35.6455L28.1817 34.2432C28.2452 33.437 28.1828 32.6264 27.9965 31.8372L27.9397 31.5964C27.4133 29.3657 25.8677 27.4678 23.7164 26.4108L23.5994 26.3533C21.5633 25.3529 19.1668 25.2325 17.0292 26.0234C14.1053 27.1052 12.1346 29.71 12.0038 32.6659L11.9992 32.7694C11.9516 33.8457 11.6625 34.9004 11.151 35.8639L10.6366 36.8327C10.3304 37.4094 9.94165 37.9438 9.48111 38.4209C8.06361 39.8893 6.0541 40.7265 3.94682 40.7265H3.75182" stroke-width="3.88321" stroke-linecap="round" data-stroke=""/>
</svg>
