<svg viewBox="0 0 50 50" fill="none" xmlns="http://www.w3.org/2000/svg">
    <path d="M10.4453 6.59107L12.5927 5.59808C20.7798 1.81228 30.2744 2.18123 38.146 6.59107M23.9351 30.548L23.9252 30.8545C23.7807 35.3383 21.3799 39.4415 17.5505 41.7496L17.4528 41.8085C16.7972 42.2036 16.1054 42.5347 15.3869 42.7972C14.3457 43.1775 13.2569 43.4107 12.1519 43.49L10.4453 43.6124M9 16.9958C18.3655 7.11734 35.12 8.38006 42 20.1414M10.1912 30.5043L10.8446 27.6535C11.3469 25.4622 12.3837 23.4308 13.8617 21.7421C14.7901 20.6815 15.8776 19.773 17.0851 19.0496L17.7809 18.6328C24.098 14.8483 32.2824 17.1546 35.7183 23.6875L35.9797 24.3013C37.0861 26.8992 37.5668 29.7227 37.3828 32.5423C37.2463 34.633 36.7469 36.6836 35.907 38.6014L34.7721 41.1927L31.3999 47M21.5255 47L22.2084 46.5101C23.9877 45.2334 25.5315 43.6544 26.7702 41.8444L27.8054 40.3319C29.3717 38.0433 30.3047 35.3778 30.5089 32.608L30.5999 31.3741C30.6523 30.6646 30.6008 29.9512 30.4471 29.2568L30.4003 29.0448C29.966 27.0818 28.6908 25.4117 26.9161 24.4815L26.8195 24.4309C25.1397 23.5505 23.1626 23.4446 21.3991 24.1406C18.9868 25.0925 17.3611 27.3848 17.2532 29.986L17.2494 30.0771C17.2101 31.0242 16.9716 31.9523 16.5496 32.8002L16.1252 33.6528C15.8726 34.1603 15.5519 34.6305 15.1719 35.0504C14.0025 36.3426 12.3446 37.0793 10.6061 37.0793H10.4453" stroke-width="3" stroke-linecap="round" data-stroke=""/>
</svg>
