<svg viewBox="0 0 50 50" fill="none" xmlns="http://www.w3.org/2000/svg">
    <g id="Union">
        <path d="M30.3186 0.737029C26.8004 -0.13665 23.0983 -0.261494 19.4961 0.512713C19.2177 0.572546 19.0407 0.845729 19.1008 1.12289C19.1609 1.40004 19.4353 1.57622 19.7137 1.51639C23.1635 0.774948 26.7172 0.8972 30.0974 1.74064C38.181 3.75768 44.9096 9.80842 47.4724 17.7123C48.4634 20.769 48.8845 24.0238 48.9688 27.4349C48.9758 27.7183 49.2123 27.9425 49.497 27.9355C49.7817 27.9285 50.0068 27.6931 49.9998 27.4096C49.9144 23.9517 49.4884 20.6132 48.4729 17.4556C45.8114 9.18085 38.779 2.83801 30.3186 0.737029Z" data-fill=""/>
        <path d="M16.8791 2.29034C17.1536 2.21493 17.3148 1.93223 17.239 1.6589C17.1633 1.38557 16.8793 1.22511 16.6048 1.30052C12.8375 2.33518 7.53809 5.9103 4.26299 10.6864C4.26171 10.6882 4.26045 10.6901 4.2592 10.692C1.38345 15.0065 -0.41924 20.4285 0.0840654 25.6897C0.0845446 25.6947 0.0850978 25.6997 0.0857247 25.7047C0.206346 26.6654 0.408842 27.6243 0.611575 28.5843C1.03857 30.6063 1.46662 32.6333 1.13298 34.6925C1.08762 34.9724 1.27879 35.2359 1.55996 35.2811C1.84113 35.3262 2.10583 35.1359 2.15119 34.856C2.49995 32.7035 2.0669 30.6039 1.63376 28.5039C1.43344 27.5328 1.23311 26.5615 1.11008 25.5848C0.636707 20.6134 2.34175 15.427 5.11671 11.2625C8.26722 6.66976 13.3689 3.25439 16.8791 2.29034Z" data-fill=""/>
        <path d="M23.6462 3.43738C30.1206 3.04378 36.5938 5.67433 40.941 10.714C41.1266 10.9291 41.1018 11.2533 40.8857 11.438C40.6697 11.6227 40.3441 11.5981 40.1586 11.383C36.0245 6.59043 29.8648 4.08706 23.7059 4.46246C23.7037 4.46259 23.7015 4.46271 23.6994 4.46282C15.9108 4.83801 8.61674 10.0982 5.93385 17.469C5.83681 17.7356 5.54109 17.8734 5.27332 17.7768C5.00555 17.6802 4.86714 17.3858 4.96417 17.1192C7.7905 9.35431 15.4497 3.83361 23.6462 3.43738Z" data-fill=""/>
        <path d="M42.5121 12.9569C42.3533 12.7215 42.0329 12.6589 41.7964 12.8169C41.56 12.975 41.4971 13.294 41.6558 13.5294C44.0658 17.1019 45.0623 20.9895 45.4562 25.6029C45.4803 25.8854 45.7299 26.095 46.0137 26.071C46.2975 26.0469 46.508 25.7984 46.4839 25.5159C46.0813 20.8017 45.0537 16.7247 42.5121 12.9569Z" data-fill=""/>
        <path d="M46.1391 27.6956C46.4234 27.6779 46.6682 27.893 46.686 28.176C46.8803 31.2718 46.8821 34.7743 46.5381 37.3627C46.5008 37.6438 46.2416 37.8415 45.9593 37.8043C45.6769 37.7672 45.4783 37.5091 45.5157 37.228C45.8472 34.7333 45.849 31.305 45.6566 28.24C45.6388 27.957 45.8549 27.7133 46.1391 27.6956Z" data-fill=""/>
        <path d="M5.1551 19.9557C5.22195 19.68 5.05171 19.4026 4.77485 19.3361C4.498 19.2696 4.21938 19.439 4.15254 19.7147C3.77404 21.2753 3.57754 22.8786 3.56976 24.4834C3.56174 26.1374 3.87152 27.752 4.18143 29.3671C4.43494 30.6884 4.68853 32.01 4.7683 33.3541C4.87309 35.1196 4.50007 36.8877 3.85548 38.5705C3.754 38.8354 3.88746 39.1321 4.15357 39.2331C4.41969 39.3342 4.71768 39.2013 4.81916 38.9364C5.5005 37.1576 5.9135 35.2416 5.79788 33.2935C5.71866 31.9587 5.46509 30.6447 5.21161 29.3312C4.90232 27.7285 4.59317 26.1265 4.60112 24.4884C4.60852 22.9635 4.79526 21.4394 5.1551 19.9557Z" data-fill=""/>
        <path d="M18.6866 8.54689C18.7927 8.81001 18.6645 9.10897 18.4002 9.21463C13.0539 11.3521 9.03924 16.1755 8.22022 21.8634C7.87805 24.2397 8.24773 26.5936 8.6173 28.9468C8.82543 30.2721 9.03353 31.5971 9.11444 32.9259C9.28987 35.8071 8.96023 38.9718 7.07677 41.8512C6.92135 42.0888 6.60189 42.156 6.36323 42.0013C6.12456 41.8466 6.05708 41.5285 6.2125 41.2909C7.92852 38.6675 8.25334 35.7535 8.08495 32.988C8.00286 31.6398 7.79606 30.2994 7.5894 28.9599C7.21859 26.5565 6.84821 24.1558 7.19929 21.7177C8.07377 15.6445 12.3495 10.5272 18.0158 8.2618C18.2801 8.15614 18.5804 8.28378 18.6866 8.54689Z" data-fill=""/>
        <path d="M36.7902 11.4698C32.5725 7.53703 26.4596 6.16442 20.9039 7.37757C20.6257 7.43832 20.4497 7.71208 20.5107 7.98904C20.5717 8.266 20.8467 8.44127 21.1249 8.38052C26.3857 7.23176 32.1418 8.54219 36.0852 12.2192C39.4089 15.3185 41.339 19.8281 41.8442 24.7483C41.8732 25.0304 42.1264 25.2357 42.4097 25.2069C42.693 25.178 42.8992 24.926 42.8703 24.6439C42.3457 19.5349 40.3341 14.7743 36.7902 11.4698Z" data-fill=""/>
        <path d="M42.7624 27.0889C43.0457 27.06 43.299 27.2651 43.328 27.5472C43.8178 32.2945 43.6067 37.4221 42.8674 42.3825C42.8256 42.663 42.5633 42.8566 42.2816 42.815C41.9999 42.7734 41.8054 42.5123 41.8472 42.2318C42.5762 37.3404 42.7816 32.2999 42.3021 27.6521C42.273 27.37 42.4791 27.1179 42.7624 27.0889Z" data-fill=""/>
        <path d="M24.7835 10.4338C16.8813 10.4338 10.4606 16.7103 10.4606 24.4702C10.4606 25.2991 10.5345 26.1113 10.6753 26.9011C10.7251 27.1802 10.9928 27.3664 11.2732 27.3168C11.5536 27.2672 11.7406 27.0007 11.6908 26.7216C11.5604 25.9904 11.492 25.2382 11.492 24.4702C11.492 17.2931 17.4349 11.4606 24.7835 11.4606C28.1044 11.4606 31.1386 12.6522 33.4674 14.6212C33.6845 14.8048 34.0099 14.7783 34.1943 14.5622C34.3787 14.3461 34.3521 14.0221 34.135 13.8386C31.6255 11.7168 28.3564 10.4338 24.7835 10.4338Z" data-fill=""/>
        <path d="M35.2905 15.7527C35.496 15.5565 35.8225 15.5633 36.0196 15.768C38.2954 18.1307 39.0239 21.8441 39.5059 24.9605C40.0489 28.4708 40.1318 31.8953 40.1318 33.4832C40.1318 33.7667 39.9009 33.9966 39.6161 33.9966C39.3313 33.9966 39.1004 33.7667 39.1004 33.4832C39.1004 31.921 39.0183 28.5544 38.4866 25.1167C38.0391 22.2236 37.394 18.6783 35.2752 16.4786C35.0781 16.274 35.0849 15.949 35.2905 15.7527Z" data-fill=""/>
        <path d="M40.0009 36.4234C40.0235 36.1407 39.8117 35.8933 39.5278 35.8708C39.2439 35.8483 38.9954 36.0591 38.9728 36.3418C38.7195 39.5042 38.3886 42.6631 37.7171 45.5812C37.6535 45.8576 37.827 46.133 38.1046 46.1963C38.3822 46.2596 38.6588 46.0869 38.7224 45.8105C39.4116 42.8155 39.7469 39.5942 40.0009 36.4234Z" data-fill=""/>
        <path d="M11.5054 28.7906C11.7848 28.7359 12.056 28.917 12.111 29.1952C13.2014 34.7076 12.4481 39.7152 9.56066 44.1017C9.40455 44.3388 9.08489 44.4051 8.84668 44.2497C8.60847 44.0943 8.54191 43.776 8.69802 43.5389C11.4148 39.4117 12.146 34.6863 11.0991 29.3936C11.044 29.1154 11.226 28.8454 11.5054 28.7906Z" data-fill=""/>
        <path d="M24.7835 13.7743C19.6539 13.7743 14.6217 17.7274 14.108 22.6956C13.8832 24.8707 14.1991 27.0132 14.5151 29.1565C14.791 31.0281 15.067 32.9003 14.9832 34.7954C14.7914 39.1327 13.5132 42.7129 11.3168 45.6618C11.1471 45.8895 11.1951 46.2111 11.4238 46.3799C11.6526 46.5488 11.9756 46.5011 12.1452 46.2734C14.4748 43.1458 15.8136 39.3641 16.0136 34.8406C16.097 32.954 15.8202 31.0877 15.5435 29.2227C15.2271 27.09 14.9109 24.9588 15.134 22.8007C15.5852 18.4362 20.0976 14.801 24.7835 14.801C26.9691 14.801 32.6239 15.9792 34.4227 21.8129C35.5499 25.4686 35.8573 30.4161 35.5843 35.2226C35.3113 40.0284 34.4621 44.625 33.3201 47.5725C33.2176 47.837 33.3499 48.1342 33.6157 48.2363C33.8814 48.3383 34.1799 48.2066 34.2824 47.942C35.4771 44.8583 36.3377 40.1453 36.614 35.2805C36.8903 30.4163 36.5866 25.3319 35.4086 21.5115C33.4119 15.036 27.1528 13.7743 24.7835 13.7743Z" data-fill=""/>
        <path d="M16.8475 44.1025C17.0861 44.2574 17.1533 44.5755 16.9977 44.813C16.678 45.3011 16.3967 45.8118 16.1153 46.3225C15.834 46.8332 15.5526 47.344 15.2328 47.8322C15.0772 48.0697 14.7577 48.1367 14.5191 47.9818C14.2806 47.8269 14.2133 47.5088 14.3689 47.2713C14.6887 46.7832 14.97 46.2725 15.2513 45.7618C15.5327 45.251 15.814 44.7402 16.1339 44.252C16.2895 44.0145 16.609 43.9476 16.8475 44.1025Z" data-fill=""/>
        <path d="M21.2632 19.1035C21.4999 18.9459 21.5635 18.6271 21.4051 18.3914C21.2468 18.1557 20.9265 18.0924 20.6898 18.2501C18.6477 19.6098 17.3949 21.4797 17.3949 24.2189C17.3949 25.85 17.6852 27.1832 17.9828 28.5507C18.4283 30.597 18.7305 32.6388 18.6762 34.7406C18.6102 37.2929 18.1086 39.6251 17.1444 41.8468C17.0315 42.1071 17.1518 42.4093 17.4133 42.5218C17.6747 42.6342 17.9782 42.5144 18.0912 42.2541C19.1107 39.905 19.6381 37.4426 19.7072 34.767C19.7636 32.583 19.4531 30.4603 18.9911 28.3336C18.6927 26.9601 18.4263 25.7339 18.4263 24.2189C18.4263 21.8719 19.4634 20.302 21.2632 19.1035Z" data-fill=""/>
        <path d="M23.2759 17.2997C25.4158 16.8654 27.7186 17.4021 29.4136 18.7678C32.4411 21.2074 32.8438 25.6565 33.1701 29.2617L33.1867 29.4453C33.6083 34.0925 33.1257 38.6064 32.1535 43.1395C32.094 43.4168 31.82 43.5936 31.5415 43.5344C31.2629 43.4752 31.0854 43.2024 31.1448 42.9251C32.1025 38.46 32.5692 34.0535 32.1595 29.5377C32.1459 29.3882 32.1324 29.2366 32.1188 29.0831L32.1186 29.0809C31.8288 25.8229 31.4658 21.7425 28.7647 19.566C27.3156 18.3983 25.3281 17.9311 23.482 18.3058C23.2029 18.3624 22.9305 18.1831 22.8736 17.9053C22.8168 17.6275 22.9969 17.3563 23.2759 17.2997Z" data-fill=""/>
        <path d="M31.4246 45.6942C31.4949 45.4194 31.3281 45.1399 31.0521 45.07C30.7761 45 30.4954 45.1661 30.4251 45.4408C30.1133 46.66 29.633 47.7604 29.0239 48.7735C28.8776 49.0168 28.9571 49.3321 29.2015 49.4777C29.4459 49.6233 29.7626 49.5441 29.9089 49.3008C30.5653 48.209 31.0863 47.0169 31.4246 45.6942Z" data-fill=""/>
        <path d="M28.9029 38.2439C29.1857 38.2772 29.3878 38.5325 29.3544 38.814C28.8673 42.9115 27.7678 46.5658 26.0035 49.7354C25.8654 49.9834 25.5516 50.073 25.3025 49.9356C25.0534 49.7981 24.9633 49.4857 25.1014 49.2377C26.7898 46.2043 27.8559 42.6827 28.3301 38.6934C28.3636 38.4118 28.62 38.2105 28.9029 38.2439Z" data-fill=""/>
        <path d="M28.7966 23.9497C28.4391 22.0478 26.7995 20.5931 24.8091 20.5931C22.1138 20.5931 20.2227 23.2978 20.8891 25.8142C22.0167 30.2562 22.2018 34.5373 21.4384 38.6605L21.4379 38.6635C20.7755 42.3656 19.5035 45.696 17.7683 48.5181C17.6196 48.7599 17.696 49.076 17.9389 49.224C18.1818 49.372 18.4993 49.296 18.648 49.0541C20.4541 46.1166 21.7694 42.6647 22.453 38.8451C23.2456 34.5628 23.0492 30.1316 21.8883 25.56L21.887 25.5546C21.3871 23.6722 22.7804 21.6199 24.8091 21.6199C26.2731 21.6199 27.5092 22.6921 27.7822 24.1351C28.5328 28.4696 28.9237 32.4892 28.6454 35.95C28.6226 36.2326 28.8343 36.4801 29.1182 36.5027C29.4021 36.5254 29.6507 36.3146 29.6734 36.032C29.962 32.4448 29.5547 28.3263 28.7979 23.9569C28.7975 23.9545 28.797 23.9521 28.7966 23.9497Z" data-fill=""/>
        <path d="M23.2703 46.1853C23.5236 46.3149 23.6234 46.6244 23.4933 46.8765L22.1268 49.5239C21.9966 49.7761 21.6858 49.8755 21.4325 49.7459C21.1791 49.6163 21.0793 49.3068 21.2095 49.0546L22.5759 46.4073C22.7061 46.1551 23.017 46.0557 23.2703 46.1853Z" data-fill=""/>
        <path d="M25.1926 24.4447C25.1275 24.1687 24.8499 23.9975 24.5727 24.0623C24.2954 24.1272 24.1234 24.4035 24.1886 24.6795C25.9276 32.0494 25.6888 38.5208 23.5705 44.0336C23.4688 44.2984 23.6019 44.5952 23.8679 44.6965C24.1339 44.7978 24.4321 44.6653 24.5338 44.4004C26.7425 38.6524 26.967 31.9642 25.1926 24.4447Z" data-fill=""/>
    </g>
</svg>
