<svg viewBox="0 0 42 50" fill="none" xmlns="http://www.w3.org/2000/svg">
    <path d="M0.511941 19.0966C0.240457 18.8879 0.0756277 18.627 0.0174525 18.314C-0.0407226 18.0009 0.0465401 17.6774 0.279241 17.3435C2.68381 13.7955 5.69922 11.0405 9.32547 9.07871C12.9517 7.11688 16.8204 6.13596 20.9314 6.13596C25.0425 6.13596 28.9208 7.08557 32.5664 8.98479C36.2121 10.884 39.2566 13.6285 41.6999 17.2182C41.9714 17.5939 42.0587 17.9278 41.9617 18.22C41.8648 18.5122 41.6999 18.7627 41.4672 18.9714C41.2345 19.1801 40.9631 19.274 40.6528 19.2531C40.3425 19.2323 40.071 19.0549 39.8383 18.7209C37.7052 15.4651 34.9613 12.9711 31.6066 11.2388C28.2518 9.50656 24.6934 8.64043 20.9314 8.64043C17.1694 8.64043 13.6401 9.50656 10.3435 11.2388C7.04695 12.9711 4.31272 15.4651 2.14084 18.7209C1.90814 19.0966 1.63666 19.3053 1.32639 19.347C1.01613 19.3888 0.744642 19.3053 0.511941 19.0966ZM27.5052 49.9642C23.4717 48.879 20.1751 46.7188 17.6154 43.4839C15.0557 40.249 13.7759 36.294 13.7759 31.619C13.7759 29.5319 14.474 27.7788 15.8702 26.3596C17.2664 24.9404 18.9535 24.2308 20.9314 24.2308C22.9094 24.2308 24.5964 24.9404 25.9927 26.3596C27.3889 27.7788 28.087 29.5319 28.087 31.619C28.087 32.9964 28.5717 34.1547 29.5413 35.0939C30.5109 36.0331 31.655 36.5027 32.9737 36.5027C34.2923 36.5027 35.417 36.0331 36.3478 35.0939C37.2786 34.1547 37.744 32.9964 37.744 31.619C37.744 26.777 36.0957 22.7072 32.7991 19.4097C29.5025 16.1121 25.566 14.4633 20.9896 14.4633C16.4131 14.4633 12.4766 16.1121 9.18004 19.4097C5.88345 22.7072 4.23515 26.7561 4.23515 31.5564C4.23515 32.5581 4.32241 33.8104 4.49694 35.3131C4.67146 36.8157 5.08839 38.5689 5.7477 40.5724C5.86405 40.9481 5.85436 41.2821 5.71862 41.5742C5.58287 41.8664 5.35987 42.0751 5.0496 42.2004C4.73934 42.3256 4.43876 42.3151 4.14789 42.169C3.85701 42.023 3.6534 41.7829 3.53705 41.449C2.9553 39.8211 2.53838 38.2036 2.28628 36.5966C2.03419 34.9896 1.90814 33.3303 1.90814 31.619C1.90814 26.0674 3.77944 21.4132 7.52205 17.6565C11.2646 13.8998 15.7344 12.0215 20.9314 12.0215C26.1672 12.0215 30.6661 13.8998 34.428 17.6565C38.19 21.4132 40.071 26.0674 40.071 31.619C40.071 33.706 39.3826 35.4487 38.0058 36.847C36.629 38.2454 34.9516 38.9445 32.9737 38.9445C30.9957 38.9445 29.2989 38.2454 27.8833 36.847C26.4677 35.4487 25.7599 33.706 25.7599 31.619C25.7599 30.2415 25.2849 29.0832 24.3347 28.144C23.3845 27.2048 22.25 26.7352 20.9314 26.7352C19.6128 26.7352 18.4784 27.2048 17.5282 28.144C16.578 29.0832 16.1029 30.2415 16.1029 31.619C16.1029 35.6679 17.2179 39.0489 19.4479 41.7621C21.678 44.4753 24.5577 46.3745 28.087 47.4598C28.436 47.585 28.6687 47.7937 28.7851 48.0859C28.9014 48.3781 28.9208 48.6911 28.8432 49.025C28.7657 49.3172 28.6105 49.5677 28.3778 49.7764C28.1451 49.9851 27.8543 50.0477 27.5052 49.9642ZM8.07471 6.01073C7.76444 6.21944 7.45417 6.27162 7.14391 6.16726C6.83364 6.06291 6.60094 5.84377 6.44581 5.50984C6.29067 5.17591 6.25189 4.87329 6.32946 4.60197C6.40702 4.33065 6.60094 4.09064 6.91121 3.88193C9.08308 2.6297 11.3519 1.66965 13.7177 1.00179C16.0835 0.33393 18.4881 0 20.9314 0C23.4136 0 25.8375 0.323494 28.2033 0.970483C30.5691 1.61747 32.8573 2.54621 35.068 3.75671C35.417 3.96541 35.6206 4.21586 35.6788 4.50805C35.737 4.80024 35.7079 5.09243 35.5916 5.38462C35.4752 5.6768 35.2813 5.90638 35.0098 6.07335C34.7383 6.24031 34.4087 6.21944 34.0208 6.01073C31.9653 4.88372 29.8419 4.01759 27.6506 3.41234C25.4594 2.8071 23.2196 2.50447 20.9314 2.50447C18.682 2.50447 16.4713 2.78623 14.2994 3.34973C12.1276 3.91324 10.0527 4.80024 8.07471 6.01073ZM14.9394 49.0877C12.6512 46.4997 10.8962 43.8596 9.67453 41.1673C8.45285 38.475 7.84201 35.2922 7.84201 31.619C7.84201 27.8205 9.12186 24.6169 11.6816 22.0081C14.2413 19.3992 17.3246 18.0948 20.9314 18.0948C24.5383 18.0948 27.6409 19.3992 30.2394 22.0081C32.8379 24.6169 34.1372 27.8205 34.1372 31.619C34.1372 31.9946 34.0305 32.2973 33.8172 32.5268C33.6039 32.7564 33.3227 32.8712 32.9737 32.8712C32.6634 32.8712 32.3919 32.7564 32.1592 32.5268C31.9265 32.2973 31.8102 31.9946 31.8102 31.619C31.8102 28.4884 30.7339 25.8691 28.5814 23.7612C26.429 21.6532 23.879 20.5993 20.9314 20.5993C17.9839 20.5993 15.4533 21.6532 13.3396 23.7612C11.2259 25.8691 10.169 28.4884 10.169 31.619C10.169 35 10.712 37.8697 11.7979 40.2281C12.8839 42.5865 14.474 44.9553 16.5683 47.3345C16.801 47.585 16.9173 47.8772 16.9173 48.2111C16.9173 48.545 16.801 48.8372 16.5683 49.0877C16.3356 49.3381 16.0641 49.4633 15.7538 49.4633C15.4436 49.4633 15.1721 49.3381 14.9394 49.0877ZM32.5083 44.8301C29.0565 44.8301 26.0605 43.5778 23.5202 41.0733C20.9799 38.5689 19.7097 35.4174 19.7097 31.619C19.7097 31.285 19.8164 30.9928 20.0297 30.7424C20.243 30.492 20.5242 30.3667 20.8732 30.3667C21.2223 30.3667 21.5035 30.492 21.7168 30.7424C21.9301 30.9928 22.0367 31.285 22.0367 31.619C22.0367 34.7495 23.0839 37.3166 25.1782 39.3202C27.2725 41.3238 29.7159 42.3256 32.5083 42.3256C32.741 42.3256 33.0706 42.3047 33.4972 42.263C33.9239 42.2212 34.3699 42.1586 34.8353 42.0751C35.1843 41.9917 35.4849 42.0438 35.737 42.2317C35.9891 42.4195 36.1539 42.7013 36.2315 43.0769C36.309 43.4109 36.2509 43.703 36.0569 43.9535C35.863 44.2039 35.6109 44.3709 35.3007 44.4544C34.6026 44.6631 33.9917 44.7779 33.4682 44.7987C32.9446 44.8196 32.6246 44.8301 32.5083 44.8301Z" data-fill=""/>
</svg>
