<svg viewBox="0 0 25 29" fill="none" xmlns="http://www.w3.org/2000/svg">
    <path id="Vector" d="M3.02595 9.625H16.6427V6.875C16.6427 5.72917 16.2014 4.75521 15.3189 3.95312C14.4363 3.15104 13.3646 2.75 12.1038 2.75C10.843 2.75 9.7713 3.15104 8.88873 3.95312C8.00616 4.75521 7.56488 5.72917 7.56488 6.875H4.53893C4.53893 4.97292 5.2765 3.35156 6.75165 2.01094C8.22681 0.670312 10.0109 0 12.1038 0C14.1968 0 15.9808 0.670312 17.456 2.01094C18.9311 3.35156 19.6687 4.97292 19.6687 6.875V9.625H21.1817C22.0138 9.625 22.7262 9.89427 23.3187 10.4328C23.9113 10.9714 24.2076 11.6187 24.2076 12.375V26.125C24.2076 26.8813 23.9113 27.5286 23.3187 28.0672C22.7262 28.6057 22.0138 28.875 21.1817 28.875H3.02595C2.19381 28.875 1.48146 28.6057 0.888873 28.0672C0.296291 27.5286 0 26.8813 0 26.125V12.375C0 11.6187 0.296291 10.9714 0.888873 10.4328C1.48146 9.89427 2.19381 9.625 3.02595 9.625ZM3.02595 26.125H21.1817V12.375H3.02595V26.125ZM12.1038 22C12.9359 22 13.6483 21.7307 14.2409 21.1922C14.8335 20.6536 15.1298 20.0063 15.1298 19.25C15.1298 18.4937 14.8335 17.8464 14.2409 17.3078C13.6483 16.7693 12.9359 16.5 12.1038 16.5C11.2717 16.5 10.5593 16.7693 9.96673 17.3078C9.37415 17.8464 9.07786 18.4937 9.07786 19.25C9.07786 20.0063 9.37415 20.6536 9.96673 21.1922C10.5593 21.7307 11.2717 22 12.1038 22Z"/>
</svg>
