<svg viewBox="0 0 85 85" xmlns="http://www.w3.org/2000/svg">
    <g>
        <path d="M0 73.9474V63.6316C0 61.5439 0.537281 59.625 1.61184 57.875C2.6864 56.125 4.11403 54.7895 5.89474 53.8684C9.70175 51.9649 13.5702 50.5373 17.5 49.5855C21.4298 48.6338 25.4211 48.1579 29.4737 48.1579C30.7018 48.1579 31.9298 48.2039 33.1579 48.2961C34.386 48.3882 35.614 48.5263 36.8421 48.7105C36.5965 52.2719 37.2412 55.6338 38.7763 58.7961C40.3114 61.9583 42.5526 64.5526 45.5 66.5789V73.9474H0ZM58.9474 85L53.4211 79.4737V62.3421C50.7193 61.5439 48.5088 60.0241 46.7895 57.7829C45.0702 55.5417 44.2105 52.9474 44.2105 50C44.2105 46.4386 45.4693 43.3991 47.9868 40.8816C50.5044 38.364 53.5439 37.1053 57.1053 37.1053C60.6667 37.1053 63.7061 38.364 66.2237 40.8816C68.7412 43.3991 70 46.4386 70 50C70 52.7632 69.2171 55.2193 67.6513 57.3684C66.0855 59.5175 64.1053 61.0526 61.7105 61.9737L66.3158 66.5789L60.7895 72.1053L66.3158 77.6316L58.9474 85ZM29.4737 44.4737C25.4211 44.4737 21.9518 43.0307 19.0658 40.1447C16.1798 37.2588 14.7368 33.7895 14.7368 29.7368C14.7368 25.6842 16.1798 22.2149 19.0658 19.3289C21.9518 16.443 25.4211 15 29.4737 15C33.5263 15 36.9956 16.443 39.8816 19.3289C42.7675 22.2149 44.2105 25.6842 44.2105 29.7368C44.2105 33.7895 42.7675 37.2588 39.8816 40.1447C36.9956 43.0307 33.5263 44.4737 29.4737 44.4737ZM57.1053 51.8421C58.1491 51.8421 59.0241 51.489 59.7303 50.7829C60.4364 50.0768 60.7895 49.2018 60.7895 48.1579C60.7895 47.114 60.4364 46.239 59.7303 45.5329C59.0241 44.8268 58.1491 44.4737 57.1053 44.4737C56.0614 44.4737 55.1864 44.8268 54.4803 45.5329C53.7741 46.239 53.4211 47.114 53.4211 48.1579C53.4211 49.2018 53.7741 50.0768 54.4803 50.7829C55.1864 51.489 56.0614 51.8421 57.1053 51.8421Z"/>
        <path d="M70 0C61.72 0 55 6.72 55 15C55 23.28 61.72 30 70 30C78.28 30 85 23.28 85 15C85 6.72 78.28 0 70 0ZM77.5 16.5H71.5V22.5H68.5V16.5H62.5V13.5H68.5V7.5H71.5V13.5H77.5V16.5Z" />
    </g>
</svg>
