<svg viewBox="0 0 92 99" fill="none" xmlns="http://www.w3.org/2000/svg">
<g id="Group 2745">
<path id="Vector" d="M71.2899 0C60.1304 0 51 9.13044 51 20.2899C51 31.4493 60.1304 40.5797 71.2899 40.5797C82.4493 40.5797 91.5797 31.4493 91.5797 20.2899C91.5797 9.13044 82.4493 0 71.2899 0ZM71.2899 30.4348C70.0725 30.4348 69.2609 29.6232 69.2609 28.4058C69.2609 27.1884 70.0725 26.3768 71.2899 26.3768C72.5072 26.3768 73.3188 27.1884 73.3188 28.4058C73.3188 29.6232 72.5072 30.4348 71.2899 30.4348ZM73.3188 20.2899C73.3188 21.5072 72.5072 22.3188 71.2899 22.3188C70.0725 22.3188 69.2609 21.5072 69.2609 20.2899V12.1739C69.2609 10.9565 70.0725 10.1449 71.2899 10.1449C72.5072 10.1449 73.3188 10.9565 73.3188 12.1739V20.2899Z" fill="#9A9A9A"/>
<g id="Group 2731">
<path id="Vector_2" d="M0 86.8857V75.6729C0 73.4037 0.545067 71.3179 1.6352 69.4158C2.72534 67.5136 4.17366 66.0619 5.98017 65.0608C9.84236 62.9918 13.7668 61.44 17.7536 60.4055C21.7404 59.3709 25.7895 58.8537 29.9008 58.8537C31.1467 58.8537 32.3926 58.9037 33.6384 59.0039C34.8843 59.104 36.1302 59.2542 37.376 59.4544C37.1269 63.3255 37.781 66.9796 39.3383 70.4169C40.8956 73.8542 43.1693 76.6741 46.1594 78.8766V86.8857H0ZM59.8017 98.8995L54.1953 92.8926V74.2713C51.4544 73.4037 49.2118 71.7518 47.4676 69.3156C45.7234 66.8795 44.8513 64.0596 44.8513 60.856C44.8513 56.9849 46.1283 53.6811 48.6823 50.9447C51.2363 48.2082 54.3199 46.84 57.9329 46.84C61.5459 46.84 64.6294 48.2082 67.1834 50.9447C69.7375 53.6811 71.0145 56.9849 71.0145 60.856C71.0145 63.8594 70.2203 66.5291 68.6318 68.8651C67.0433 71.2011 65.0343 72.8697 62.6049 73.8709L67.2769 78.8766L61.6705 84.8834L67.2769 90.8903L59.8017 98.8995ZM29.9008 54.8491C25.7895 54.8491 22.2699 53.2807 19.3421 50.1437C16.4143 47.0068 14.9504 43.2358 14.9504 38.8308C14.9504 34.4258 16.4143 30.6548 19.3421 27.5179C22.2699 24.381 25.7895 22.8125 29.9008 22.8125C34.0122 22.8125 37.5318 24.381 40.4596 27.5179C43.3874 30.6548 44.8513 34.4258 44.8513 38.8308C44.8513 43.2358 43.3874 47.0068 40.4596 50.1437C37.5318 53.2807 34.0122 54.8491 29.9008 54.8491ZM57.9329 62.8583C58.9919 62.8583 59.8795 62.4745 60.5959 61.707C61.3123 60.9394 61.6705 59.9883 61.6705 58.8537C61.6705 57.7191 61.3123 56.768 60.5959 56.0004C59.8795 55.2329 58.9919 54.8491 57.9329 54.8491C56.8739 54.8491 55.9862 55.2329 55.2698 56.0004C54.5535 56.768 54.1953 57.7191 54.1953 58.8537C54.1953 59.9883 54.5535 60.9394 55.2698 61.707C55.9862 62.4745 56.8739 62.8583 57.9329 62.8583Z" fill="black"/>
</g>
</g>
</svg>
