<svg viewBox="0 0 18 23" xmlns="http://www.w3.org/2000/svg">
<path id="Vector" d="M7.65 15.1503L14.0242 8.77462L13.1069 7.85707L7.65 13.3153L4.90056 10.5651L3.98324 11.4827L7.65 15.1503ZM9 23C6.41702 22.2333 4.27128 20.6683 2.56278 18.3048C0.85426 15.9413 0 13.279 0 10.3178V3.36343L9 0L18 3.36343V10.3178C18 13.279 17.1457 15.9413 15.4372 18.3048C13.7287 20.6683 11.583 22.2333 9 23ZM9 21.6348C11.2286 20.9275 13.0714 19.5129 14.5286 17.391C15.9857 15.269 16.7143 12.9113 16.7143 10.3178V4.24139L9 1.37257L1.28571 4.24139V10.3178C1.28571 12.9113 2.01429 15.269 3.47143 17.391C4.92857 19.5129 6.77143 20.9275 9 21.6348Z"/>
</svg>
